<svg width="230" height="45" viewBox="0 0 230 45" fill="none" xmlns="http://www.w3.org/2000/svg">
<rect width="230" height="45" fill="#FF7A00"/>
<path d="M37.78 28.1C39.36 28.1 40.64 26.8 40.64 25.06C40.64 23.3 39.36 22 37.78 22C36.18 22 34.9 23.3 34.9 25.06C34.9 26.8 36.18 28.1 37.78 28.1ZM60.5986 18.4L58.6186 16.78C58.1786 16.92 57.5186 17 56.7386 17C54.5986 17 46.9186 17 45.6586 17C44.9586 17 43.8786 16.9 43.3386 16.8V19.62C43.7586 19.56 44.8386 19.46 45.6586 19.46C47.1786 19.46 54.4586 19.46 56.2186 19.46C55.1786 21.3 52.9386 24.02 50.2986 25.86L52.2986 27.7C55.3986 25.42 58.3586 21.82 59.9186 19.24C60.0786 19 60.3186 18.72 60.5986 18.4ZM50.0586 28C51.3586 29.32 53.0386 31.2 53.8586 32.32L56.2186 30.44C55.2586 29.28 53.6786 27.62 52.3586 26.34C50.8386 24.88 48.8386 23.26 47.7586 22.44L45.6586 24.16C46.8386 25 48.8786 26.82 50.0586 28ZM71.5986 30.56L73.2786 31.94C73.4786 31.8 73.7186 31.58 74.1386 31.36C76.3986 30.22 79.2586 28.06 80.9186 25.9L79.3986 23.68C78.0386 25.62 76.0786 27.2 74.4386 27.9C74.4386 26.68 74.4386 19.06 74.4386 17.46C74.4386 16.56 74.5786 15.76 74.5786 15.72H71.6186C71.6186 15.76 71.7586 16.54 71.7586 17.44C71.7586 19.06 71.7586 28.04 71.7586 29.1C71.7586 29.64 71.6986 30.18 71.5986 30.56ZM62.3386 30.28L64.7786 31.9C66.4986 30.38 67.7386 28.4 68.3586 26.16C68.8786 24.14 68.9386 19.92 68.9386 17.54C68.9386 16.72 69.0786 15.82 69.0786 15.74H66.1386C66.2586 16.24 66.3386 16.76 66.3386 17.58C66.3386 19.98 66.3186 23.78 65.7386 25.48C65.1986 27.2 64.1186 29.04 62.3386 30.28ZM87.1986 28.34C87.1986 30.72 87.8586 31.8 92.3986 31.8C94.5586 31.8 96.9586 31.62 98.5986 31.38L98.6986 28.66C96.7186 29.06 94.4786 29.32 92.3786 29.32C90.1986 29.32 89.8386 28.9 89.8386 27.64C89.8386 25.42 89.8386 19.92 89.8386 17.52C89.8386 16.84 89.9186 15.82 90.0186 15.22H87.0386C87.1386 15.82 87.1986 16.84 87.1986 17.52C87.1986 19.94 87.1986 26.7 87.1986 28.34ZM99.7786 19.56L97.8586 18.06C97.4986 18.26 96.9986 18.4 96.4386 18.54C94.6186 18.98 85.2186 20.82 82.4986 21.14L82.9786 23.76C85.5186 23.2 94.7586 21.36 95.9786 21.12C95.4186 22.16 94.1186 24 92.7986 25.18L94.9986 26.48C96.4386 25.06 98.2586 22.32 99.1386 20.64C99.3186 20.3 99.5986 19.84 99.7786 19.56ZM111.599 30.56L113.279 31.94C113.479 31.8 113.719 31.58 114.139 31.36C116.399 30.22 119.259 28.06 120.919 25.9L119.399 23.68C118.039 25.62 116.079 27.2 114.439 27.9C114.439 26.68 114.439 19.06 114.439 17.46C114.439 16.56 114.579 15.76 114.579 15.72H111.619C111.619 15.76 111.759 16.54 111.759 17.44C111.759 19.06 111.759 28.04 111.759 29.1C111.759 29.64 111.699 30.18 111.599 30.56ZM102.339 30.28L104.779 31.9C106.499 30.38 107.739 28.4 108.359 26.16C108.879 24.14 108.939 19.92 108.939 17.54C108.939 16.72 109.079 15.82 109.079 15.74H106.139C106.259 16.24 106.339 16.76 106.339 17.58C106.339 19.98 106.319 23.78 105.739 25.48C105.199 27.2 104.119 29.04 102.339 30.28ZM133.379 17.3L130.639 17.22C130.439 19.32 129.999 21.62 129.419 23.5C128.579 26.2 127.819 27.48 126.959 27.48C126.199 27.48 125.399 26.5 125.399 24.48C125.399 21.96 127.719 18.5 131.959 18.5C135.419 18.5 137.379 20.74 137.379 23.88C137.379 26.82 135.379 28.64 132.839 29.26C132.299 29.38 131.739 29.48 130.959 29.58L132.479 31.94C137.519 31.16 140.099 28.18 140.099 23.98C140.099 19.6 136.959 16.16 132.019 16.16C126.839 16.16 122.819 20.12 122.819 24.72C122.819 28.1 124.659 30.56 126.899 30.56C129.079 30.56 130.799 28.08 131.999 24.04C132.699 21.68 133.099 19.34 133.379 17.3ZM150.199 13.94V18H152.779V13.94H150.199ZM150.239 18.74V32.84H152.739V18.74H150.239ZM142.399 16.56V18.9H160.759V16.56H142.399ZM144.299 21V30.4H146.719V23.34H157.479V21H144.299ZM156.579 21V27.74C156.579 28 156.479 28.08 156.139 28.08C155.839 28.08 154.639 28.08 153.639 28.04C153.979 28.68 154.339 29.7 154.439 30.4C155.999 30.4 157.159 30.36 157.999 30C158.839 29.62 159.079 28.94 159.079 27.78V21H156.579ZM168.299 22.08V24.1H180.959V22.08H168.299ZM170.479 25.06V26.94H178.699V25.06H170.479ZM171.239 22.82C170.419 24.76 168.819 26.42 166.979 27.46C167.439 27.78 168.239 28.5 168.579 28.9C170.479 27.66 172.279 25.66 173.299 23.34L171.239 22.82ZM178.319 25.06V25.38C178.099 28.94 177.799 30.32 177.479 30.68C177.319 30.88 177.159 30.92 176.879 30.92C176.619 30.92 176.079 30.9 175.459 30.84C175.759 31.34 175.959 32.16 175.979 32.74C176.799 32.76 177.559 32.74 178.019 32.68C178.539 32.62 178.979 32.46 179.359 32.02C179.899 31.42 180.219 29.8 180.499 25.88C180.539 25.6 180.559 25.06 180.559 25.06H178.319ZM172.179 18.7H177.359V19.66H172.179V18.7ZM172.179 16.18H177.359V17.14H172.179V16.18ZM170.059 14.52V21.32H179.579V14.52H170.059ZM162.439 18.22V20.5H168.559V18.22H162.439ZM164.459 14.26V26.7H166.699V14.26H164.459ZM161.999 27.12L162.879 29.54C164.639 28.7 166.799 27.62 168.799 26.58L168.299 24.52C165.979 25.52 163.539 26.54 161.999 27.12ZM176.039 25.44C175.299 27.76 173.659 30.34 171.719 31.54C172.319 31.88 173.019 32.42 173.439 32.88C175.219 31.5 176.899 28.72 177.659 26.32L176.039 25.44ZM172.999 25.46C172.039 27.42 169.979 29.58 167.999 30.58C168.559 30.92 169.199 31.5 169.579 32C171.479 30.78 173.579 28.46 174.579 26.4L172.999 25.46ZM189.87 28.1C191.45 28.1 192.73 26.8 192.73 25.06C192.73 23.3 191.45 22 189.87 22C188.27 22 186.99 23.3 186.99 25.06C186.99 26.8 188.27 28.1 189.87 28.1Z" fill="white"/>
</svg>
